HIERARCHY
ROOT Hips
{
	OFFSET 0.00 0.00 0.00
	CHANNELS 6 Xposition Yposition Zposition Xrotation Yrotation Zrotation
	JOINT RightUpLeg
	{
		OFFSET -4.47808 0.00000 0.00000
		CHANNELS 3 Xrotation Yrotation Zrotation
		JOINT RightLeg
		{
			OFFSET 0.00000 -16.40577 0.00000
			CHANNELS 3 Xrotation Yrotation Zrotation
			JOINT RightFoot
			{
				OFFSET 0.00000 -14.64414 0.00000
				CHANNELS 3 Xrotation Yrotation Zrotation
				JOINT RightToeBase
				{
					OFFSET 0.00000 -1.50274 5.60831
					CHANNELS 3 Xrotation Yrotation Zrotation
					End Site
					{
						OFFSET 0.00000 0.00000 2.95275
					}
				}
			}
		}
	}
	JOINT LeftUpLeg
	{
		OFFSET 4.47808 0.00000 0.00000
		CHANNELS 3 Xrotation Yrotation Zrotation
		JOINT LeftLeg
		{
			OFFSET 0.00000 -16.40577 0.00000
			CHANNELS 3 Xrotation Yrotation Zrotation
			JOINT LeftFoot
			{
				OFFSET 0.00000 -14.64414 0.00000
				CHANNELS 3 Xrotation Yrotation Zrotation
				JOINT LeftToeBase
				{
					OFFSET 0.00000 -1.50274 5.60831
					CHANNELS 3 Xrotation Yrotation Zrotation
					End Site
					{
						OFFSET 0.00000 0.00000 2.95275
					}
				}
			}
		}
	}
	JOINT Spine
	{
		OFFSET 0.00000 6.06821 0.00000
		CHANNELS 3 Xrotation Yrotation Zrotation
		JOINT RightShoulder
		{
			OFFSET 0.00000 10.01392 0.00000
			CHANNELS 3 Xrotation Yrotation Zrotation
			JOINT RightArm
			{
				OFFSET -7.19022 0.00000 0.00000
				CHANNELS 3 Xrotation Yrotation Zrotation
				JOINT RightForeArm
				{
					OFFSET -10.17747 0.00000 0.00000
					CHANNELS 3 Yrotation Zrotation Xrotation
					JOINT RightHand
					{
						OFFSET -8.39211 0.00000 0.00000
						CHANNELS 3 Xrotation Yrotation Zrotation
						End Site
						{
							OFFSET -3.93700 0.00000 0.00000
						}
						JOINT RightHandThumb1
						{
							OFFSET 0.00000 0.00000 0.00000
							CHANNELS 3 Xrotation Zrotation Yrotation
							End Site
							{
								OFFSET 0.00000 0.00000 3.93700
							}
						}
					}
				}
			}
		}
		JOINT LeftShoulder
		{
			OFFSET 0.00000 10.01392 0.00000
			CHANNELS 3 Xrotation Yrotation Zrotation
			JOINT LeftArm
			{
				OFFSET 7.19022 0.00000 0.00000
				CHANNELS 3 Xrotation Yrotation Zrotation
				JOINT LeftForeArm
				{
					OFFSET 10.17747 0.00000 0.00000
					CHANNELS 3 Yrotation Zrotation Xrotation
					JOINT LeftHand
					{
						OFFSET 8.39211 0.00000 0.00000
						CHANNELS 3 Xrotation Yrotation Zrotation
						End Site
						{
							OFFSET 3.93700 0.00000 0.00000
						}
						JOINT LeftHandThumb1
						{
							OFFSET 0.00000 0.00000 0.00000
							CHANNELS 3 Xrotation Zrotation Yrotation
							End Site
							{
								OFFSET 0.00000 0.00000 3.93700
							}
						}
					}
				}
			}
		}
		JOINT Head
		{
			OFFSET 0.00000 15.77748 0.00000
			CHANNELS 3 Xrotation Yrotation Zrotation
			End Site
			{
				OFFSET 0.00000 4.52755 0.00000
			}
		}
	}
}
MOTION
Frames: 7
Frame Time: 0.008333
 -4.0020 33.1594 -2.7061 8.5722 -1.3803 2.9621 -1.0177 -6.6231 -3.0887 -1.1431 -0.0000 -0.0000 -11.2176 -5.5291 -0.6363 5.1933 -0.0000 -0.0000 -2.3815 3.3166 2.6721 1.0586 0.0000 0.0000 -9.2077 5.5694 -13.1475 11.0776 0.0000 -0.0000 -9.4080 -2.6198 -1.5564 3.8113 -25.4601 -27.1365 -36.0773 1.8193 33.0953 11.9422 0.0000 11.1264 -1.0311 7.9932 7.3750 32.8623 0.0000 -24.3270 -11.1908 24.3392 32.8862 -32.0573 1.2401 -32.0651 0.6467 0.0000 23.1709 1.2039 6.7759 -10.0990 33.1476 -0.0000 26.2537 -4.3902 2.3979 -1.7177
 -4.0021 33.1582 -2.7015 8.5449 -1.3507 2.9546 -0.9720 -6.6239 -3.0826 -1.1459 0.0000 -0.0000 -11.2229 -5.5677 -0.6307 5.4759 0.0000 -0.0000 -2.3406 3.2933 2.6766 1.0338 0.0000 -0.0000 -9.2104 5.5668 -13.1553 11.1051 0.0000 -0.0000 -9.3819 -2.6201 -1.5711 3.8380 -25.5078 -27.0943 -36.1184 1.7900 33.1039 11.9263 0.0000 11.1409 -1.0278 8.0102 7.3358 32.8623 0.0000 -24.3270 -11.2635 24.2809 32.9278 -31.9962 1.2259 -32.0564 0.5957 0.0000 23.2195 1.2153 6.8094 -10.1440 33.1476 -0.0000 26.2537 -4.4569 2.4294 -1.6197
 -4.0029 33.1569 -2.6982 8.5339 -1.3114 2.9450 -0.9481 -6.6393 -3.0719 -1.1463 0.0000 0.0000 -11.2371 -5.5841 -0.6682 5.5176 -0.0000 0.0000 -2.3249 3.2609 2.6857 1.0189 -0.0000 -0.0000 -9.2144 5.5560 -13.1462 11.0768 0.0000 0.0000 -9.3864 -2.6400 -1.5761 3.8687 -25.5295 -27.0767 -36.1592 1.7271 33.1285 11.9566 0.0000 11.1836 -1.0283 7.9822 7.3650 32.8623 0.0000 -24.3270 -11.2714 24.2454 32.9247 -31.9698 1.1932 -32.0326 0.5643 0.0000 23.2324 1.2210 6.7764 -10.2388 33.1476 -0.0000 26.2537 -4.4827 2.6065 -1.5619
 -4.0033 33.1562 -2.6959 8.5205 -1.2905 2.9353 -0.9337 -6.6382 -3.0639 -1.1292 -0.0000 -0.0000 -11.2413 -5.6107 -0.6450 5.4310 0.0000 -0.0000 -2.3069 3.2733 2.6935 0.9971 0.0000 0.0000 -9.1879 5.5351 -13.1983 11.0039 0.0000 -0.0000 -9.3801 -2.6413 -1.5827 3.8806 -25.5396 -27.0440 -36.1261 1.7209 33.1437 11.9664 0.0000 11.1158 -1.0079 7.8809 7.3118 32.8623 0.0000 -24.3270 -11.2772 24.2336 32.9338 -31.9670 1.1489 -32.0385 0.5495 0.0000 23.2382 1.2243 6.7857 -10.2522 33.1476 -0.0000 26.2537 -4.5313 2.7079 -1.5055
 -4.0022 33.1562 -2.6944 8.5148 -1.2621 2.9325 -0.9280 -6.6457 -3.0645 -1.1170 0.0000 0.0000 -11.2582 -5.6247 -0.6648 5.4678 -0.0000 0.0000 -2.3053 3.2458 2.6887 1.0078 0.0000 0.0000 -9.2138 5.5373 -13.1217 11.0622 0.0000 -0.0000 -9.3814 -2.6455 -1.5968 3.9046 -25.5619 -26.9996 -36.1105 1.7198 33.1637 11.9531 0.0000 11.0790 -1.0116 7.9065 7.3150 32.8623 0.0000 -24.3270 -11.2647 24.2278 32.9428 -31.9850 1.1193 -32.0586 0.5361 0.0000 23.2657 1.2269 6.8316 -10.2064 33.1476 -0.0000 26.2537 -4.5832 2.7959 -1.4494
 -4.0024 33.1555 -2.6912 8.4942 -1.2336 2.9261 -0.8977 -6.6685 -3.0583 -1.1183 -0.0000 -0.0000 -11.2572 -5.6326 -0.6449 5.4351 -0.0000 0.0000 -2.2824 3.2296 2.6921 1.0010 -0.0000 -0.0000 -9.2213 5.5378 -13.1247 11.0655 -0.0000 0.0000 -9.3681 -2.6594 -1.6101 3.9101 -25.5681 -26.9525 -36.0906 1.7238 33.1801 11.9496 0.0000 11.1078 -1.0198 7.8663 7.4108 32.8623 0.0000 -24.3270 -11.2952 24.1863 32.9739 -31.9525 1.1104 -32.0703 0.5230 0.0000 23.2786 1.2295 6.8351 -10.2224 33.1476 -0.0000 26.2537 -4.6381 2.9223 -1.3997
 -4.0036 33.1548 -2.6880 8.4835 -1.2044 2.9147 -0.8747 -6.6955 -3.0455 -1.1245 -0.0000 -0.0000 -11.2595 -5.6309 -0.6634 5.4753 -0.0000 0.0000 -2.2723 3.2268 2.7043 0.9981 0.0000 0.0000 -9.2266 5.5141 -13.1388 11.0786 -0.0000 -0.0000 -9.3691 -2.6657 -1.6200 3.9478 -25.5968 -26.8951 -36.0989 1.7160 33.2044 11.9775 0.0000 11.0880 -0.9987 7.7063 7.4066 32.8623 0.0000 -24.3270 -11.3182 24.1402 33.0034 -31.8821 1.0661 -32.0871 0.5202 0.0000 23.2703 1.2162 6.7712 -10.2076 33.1476 -0.0000 26.2537 -4.6894 3.0113 -1.3292
